<svg xmlnssvg xmlns="http://www.w3.org/svg">>.66="xlink" width="800px" viewBox"><defs><px" viewBox="0.0 0.0 24.0 24.0" height="200px" width="200px"><path fill="none" stroke="black" stroke-width=".3" stroke-opacity="1.0" filling="0" d="M11.5 5.0 L14.1 5.0 C16.3 5.2 17.4 6.1 17.9 8.0 L17.1 12.1 C17.1 12.4 17.3 12.717.1 13.1 C16.3 13.1 16.3 13.1 17.6 12.1 17.5 12.3 17.7 13.7 L14.2 11.5 C14.6 10.3 13.5 8.7 L13.5 8.3 C12.7 7.8 12.3 5.8 12.3 5.8 L12.3 5.8"></path> <path fill="none" stroke="black" stroke-width=".3" stroke-opacity="1.0" filling="0" d="M11.3 8.8 L12.4 8.8 L12.6 8.8 C14.4 8.6 13.2 9.5 13.8 9.3 L13.8 9.3 C11.8 9.4 11.8 9.2 10.8 8.6 L11.1 9.6 L11.8 9.9 L10.2 9.3 L9.3 8.6"></path></svg>